<svg width="1024" height="776" viewBox="0 0 1024 776" fill="none" xmlns="http://www.w3.org/2000/svg">
<path d="M508.399 86.5479C467.277 125.805 434.832 172.847 413.955 225.19C393.078 172.847 360.723 125.805 319.511 86.5479L413.955 0L508.399 86.5479Z" fill="#E5E5E5" fill-opacity="0.26"/>
<path d="M116.162 163.737C117.337 218.15 130.713 272.398 156.38 322.919C101.25 299.398 42.0531 287.14 -17.3246 286.064V163.654H116.253L116.162 163.737Z" fill="#E5E5E5" fill-opacity="0.26"/>
<path d="M-101.556 472.493C-58.7172 510.177 -7.38307 539.91 49.7352 559.041C-7.38307 578.173 -58.7172 607.823 -101.556 645.589L-196 558.959L-101.556 472.411V472.493Z" fill="#E5E5E5" fill-opacity="0.26"/>
<path d="M929.556 645.506C886.717 607.823 835.383 578.09 778.265 558.959C835.383 539.827 886.717 510.177 929.556 472.411L1024 558.959L929.556 645.506Z" fill="#E5E5E5" fill-opacity="0.26"/>
<path d="M845.325 286.064C785.947 287.14 726.75 299.398 671.62 322.919C697.287 272.398 710.663 218.15 711.838 163.737H845.415V286.146L845.325 286.064Z" fill="#E5E5E5" fill-opacity="0.26"/>
<path d="M308.304 323.084L299.989 314.72C267.905 282.419 229.405 257.076 185.662 239.435L181.595 237.779L226.242 139.885L333.067 180.798L331.441 184.608C313.907 225.356 305.954 268.174 307.852 311.821L308.304 323.167V323.084ZM193.344 233.472C232.93 250.036 268.267 272.812 298.543 301.22C298.272 261.548 305.954 222.623 321.409 185.27L231.122 150.651L193.344 233.389V233.472Z" fill="#E5E5E5" fill-opacity="0.26"/>
<path d="M1.8354 482.432L-42.1782 384.289L64.9186 343.955L66.7261 347.682C85.7957 387.85 113.18 423.298 148.156 452.948L157.284 460.65L144.902 460.153C97.2736 458.165 50.5486 465.122 5.99275 480.941L1.8354 482.432ZM-30.3388 388.761L6.80614 471.748C47.5662 457.751 90.1338 450.96 133.424 451.457C102.606 423.546 78.0233 391.08 60.219 354.639L-30.3388 388.679V388.761Z" fill="#E5E5E5" fill-opacity="0.26"/>
<path d="M63.4725 771.974L-43.3531 731.06L1.29313 633.166L5.45048 634.657C49.916 650.724 96.6409 658.012 144.27 656.273L156.651 655.859L147.523 663.479C112.276 692.88 84.6208 728.162 65.3705 768.247L63.5629 771.974H63.4725ZM-31.5137 726.588L58.7729 761.207C76.8484 724.932 101.702 692.549 132.701 664.804C131.978 664.804 131.255 664.804 130.442 664.804C87.8743 664.804 46.2105 657.764 6.1735 643.767L-31.6041 726.505L-31.5137 726.588Z" fill="#E5E5E5" fill-opacity="0.26"/>
<path d="M762.991 773.962L761.183 770.235C742.114 730.067 714.73 694.619 679.754 664.969L670.625 657.267L683.007 657.764C730.636 659.752 777.361 652.795 821.917 636.976L826.074 635.485L870.088 733.628L762.991 773.879V773.962ZM694.485 666.377C725.304 694.288 749.886 726.754 767.69 763.195L858.248 729.156L821.103 646.169C780.343 660.166 737.776 666.957 694.485 666.46V666.377Z" fill="#E5E5E5" fill-opacity="0.26"/>
<path d="M826.707 484.834L822.549 483.343C778.084 467.276 731.359 459.988 683.73 461.727L671.349 462.141L680.477 454.521C715.724 425.12 743.379 389.838 762.629 349.753L764.437 346.026L871.263 386.939L826.616 484.834H826.707ZM697.468 453.196C740.035 453.196 781.699 460.236 821.736 474.233L859.514 391.495L769.227 356.875C751.152 393.151 726.298 425.534 695.299 453.279C696.022 453.279 696.745 453.279 697.558 453.279L697.468 453.196Z" fill="#E5E5E5" fill-opacity="0.26"/>
<path d="M521.232 323.747L521.775 312.401C523.944 268.754 516.352 225.935 499.09 185.105L497.463 181.295L604.56 140.961L648.483 239.104L644.416 240.76C600.583 258.236 561.902 283.33 529.547 315.382L521.142 323.747H521.232ZM509.122 185.85C524.395 223.202 531.806 262.211 531.264 301.882C561.721 273.64 597.149 251.113 636.915 234.797L599.77 151.811L509.212 185.85H509.122Z" fill="#E5E5E5" fill-opacity="0.26"/>
<path d="M660.323 600.286C639.897 582.231 615.315 568.069 588.021 558.958C615.315 549.848 639.807 535.603 660.323 517.631L705.421 558.958L660.323 600.286Z" fill="#E5E5E5" fill-opacity="0.26"/>
<path d="M459.053 333.272C439.351 351.989 423.896 374.516 413.955 399.528C404.013 374.516 388.469 352.072 368.857 333.272L413.955 291.944L459.053 333.272Z" fill="#E5E5E5" fill-opacity="0.26"/>
<path d="M271.701 370.127C272.244 396.133 278.66 422.056 290.952 446.157C264.652 434.893 236.364 429.095 207.985 428.599V370.127H271.792H271.701Z" fill="#E5E5E5" fill-opacity="0.26"/>
<path d="M167.677 517.631C188.102 535.686 212.685 549.848 239.979 558.958C212.685 568.069 188.193 582.314 167.677 600.286L122.579 558.958L167.677 517.631Z" fill="#E5E5E5" fill-opacity="0.26"/>
<path d="M207.895 689.402C236.273 688.905 264.561 683.024 290.861 671.761C278.57 695.862 272.243 721.785 271.701 747.79H207.895V689.319V689.402Z" fill="#E5E5E5" fill-opacity="0.26"/>
<path d="M368.857 784.728C388.559 766.011 404.013 743.484 413.955 718.472C423.896 743.484 439.441 765.928 459.053 784.728L413.955 826.056L368.857 784.728Z" fill="#E5E5E5" fill-opacity="0.26"/>
<path d="M556.299 747.79C555.756 721.785 549.34 695.862 537.048 671.761C563.348 683.024 591.636 688.822 620.014 689.319V747.79H556.208H556.299Z" fill="#E5E5E5" fill-opacity="0.26"/>
<path d="M620.014 428.598C591.636 429.095 563.348 434.976 537.048 446.239C549.34 422.138 555.666 396.215 556.208 370.21H620.014V428.681V428.598Z" fill="#E5E5E5" fill-opacity="0.26"/>
<path d="M413.955 649.399L315.263 558.959L413.955 468.518L512.647 558.959L413.955 649.399ZM328.097 558.959L413.955 637.638L499.813 558.959L413.955 480.279L328.097 558.959Z" fill="#E5E5E5" fill-opacity="0.26"/>
</svg>
