<svg width="74" height="88" viewBox="0 0 74 88" fill="none" xmlns="http://www.w3.org/2000/svg">
<path d="M37.0198 42C49.1691 41.9904 59.011 33.4773 59 22.9829C58.989 12.4884 49.1316 3.99049 36.9802 4.00001C24.8309 4.00952 14.989 12.5227 15 23.0171C15.0044 28.0531 17.325 32.8797 21.4482 36.4387C25.5758 40.0073 31.1799 42.0095 37.0198 42Z" stroke="#AD936D" stroke-width="7" stroke-miterlimit="10"/>
<path d="M37.0011 54C18.8046 54 4 66.531 4 81.9352C4 83.075 5.09265 84 6.43911 84H67.5609C68.9073 84 70 83.075 70 81.9352C70 66.531 55.1954 54 37.0011 54V54Z" stroke="#AD936D" stroke-width="7" stroke-miterlimit="10"/>
</svg>
