<svg width="96" height="89" viewBox="0 0 96 89" fill="none" xmlns="http://www.w3.org/2000/svg">
<path d="M48 81.7049C70.1639 81.7049 88.1312 65.0477 88.1312 44.5C88.1312 23.9523 70.1639 7.29504 48 7.29504C25.8362 7.29504 7.8689 23.9523 7.8689 44.5C7.8689 65.0477 25.8362 81.7049 48 81.7049Z" stroke="#576473" stroke-width="7" stroke-linecap="round" stroke-linejoin="round"/>
<path d="M33.3864 79.1412C33.3864 79.1412 42.4019 68.9906 33.971 66.8021C29.1822 65.6557 26.0347 61.4246 26.5967 56.8808H30.4412C33.3864 56.8808 35.792 54.6714 35.792 51.9201C35.792 51.5241 35.7471 51.1073 35.6347 50.7113L32.9593 40.7899C32.1049 37.6009 20.9761 32.0984 8.67822 37.0382" stroke="#576473" stroke-width="7" stroke-linecap="round" stroke-linejoin="round"/>
<path d="M80.0376 22.177L72.7533 26.6791C70.1003 28.3466 66.6605 28.4508 63.9177 26.9501C60.5453 25.0742 56.2287 25.5953 53.4858 28.2423C52.3167 29.4096 51.5523 30.8477 51.2601 32.411L50.5406 35.8709C49.8212 38.5388 51.5748 41.2276 54.4301 41.8946C54.8572 41.9988 55.2844 42.0405 55.7341 42.0405C55.7341 42.0405 67.3575 40.373 68.0994 45.563C68.594 49.0021 65.9861 52.0452 64.165 53.7126C61.7369 55.8803 61.6694 59.4444 64.0076 61.6955C64.0526 61.7372 64.0975 61.7789 64.1425 61.8206L64.2324 61.9039C65.6263 62.9878 67.4474 63.4672 69.246 63.2587L83.4549 61.9039C90.7392 49.1897 89.3903 33.7032 80.0151 22.2187L80.0376 22.177Z" stroke="#576473" stroke-width="7" stroke-linecap="round" stroke-linejoin="round"/>
</svg>
